<mxfile host="app.diagrams.net" modified="2021-01-13T08:57:06.372Z" agent="5.0 (Windows NT 10.0; Win64; x64) AppleWebKit/537.36 (KHTML, like Gecko) Chrome/87.0.4280.141 Safari/537.36" etag="0Z7Kx0GvyoVNum46m5H6" version="14.1.1" type="github">
  <diagram id="1I48yk1pTl18TJWUvN-q" name="Page-1">
    <mxGraphModel dx="1422" dy="762" grid="1" gridSize="10" guides="1" tooltips="1" connect="1" arrows="1" fold="1" page="1" pageScale="1" pageWidth="827" pageHeight="1169" math="0" shadow="0">
      <root>
        <mxCell id="0" />
        <mxCell id="1" parent="0" />
        <mxCell id="0SLeSFdNCgg_F5EIytYb-29" value="" style="rounded=1;whiteSpace=wrap;html=1;glass=0;sketch=0;dashed=1;" vertex="1" parent="1">
          <mxGeometry x="100" y="490" width="600" height="340" as="geometry" />
        </mxCell>
        <mxCell id="0SLeSFdNCgg_F5EIytYb-5" value="" style="edgeStyle=orthogonalEdgeStyle;rounded=0;orthogonalLoop=1;jettySize=auto;html=1;" edge="1" parent="1" source="0SLeSFdNCgg_F5EIytYb-17" target="0SLeSFdNCgg_F5EIytYb-4">
          <mxGeometry relative="1" as="geometry" />
        </mxCell>
        <mxCell id="0SLeSFdNCgg_F5EIytYb-1" value="teacher model" style="rounded=0;whiteSpace=wrap;html=1;fillColor=#f8cecc;strokeColor=#b85450;" vertex="1" parent="1">
          <mxGeometry x="340" y="260" width="120" height="60" as="geometry" />
        </mxCell>
        <mxCell id="0SLeSFdNCgg_F5EIytYb-3" value="" style="edgeStyle=orthogonalEdgeStyle;rounded=0;orthogonalLoop=1;jettySize=auto;html=1;" edge="1" parent="1" source="0SLeSFdNCgg_F5EIytYb-2" target="0SLeSFdNCgg_F5EIytYb-1">
          <mxGeometry relative="1" as="geometry" />
        </mxCell>
        <mxCell id="0SLeSFdNCgg_F5EIytYb-2" value="labeled" style="shape=cylinder3;whiteSpace=wrap;html=1;boundedLbl=1;backgroundOutline=1;size=15;fillColor=#d5e8d4;strokeColor=#82b366;" vertex="1" parent="1">
          <mxGeometry x="190" y="250" width="60" height="80" as="geometry" />
        </mxCell>
        <mxCell id="0SLeSFdNCgg_F5EIytYb-11" style="edgeStyle=orthogonalEdgeStyle;rounded=0;orthogonalLoop=1;jettySize=auto;html=1;entryX=0.5;entryY=0;entryDx=0;entryDy=0;" edge="1" parent="1" source="0SLeSFdNCgg_F5EIytYb-4" target="0SLeSFdNCgg_F5EIytYb-6">
          <mxGeometry relative="1" as="geometry" />
        </mxCell>
        <mxCell id="0SLeSFdNCgg_F5EIytYb-13" style="edgeStyle=orthogonalEdgeStyle;rounded=0;orthogonalLoop=1;jettySize=auto;html=1;entryX=0.5;entryY=0;entryDx=0;entryDy=0;" edge="1" parent="1" source="0SLeSFdNCgg_F5EIytYb-4" target="0SLeSFdNCgg_F5EIytYb-10">
          <mxGeometry relative="1" as="geometry" />
        </mxCell>
        <mxCell id="0SLeSFdNCgg_F5EIytYb-15" style="edgeStyle=orthogonalEdgeStyle;rounded=0;orthogonalLoop=1;jettySize=auto;html=1;entryX=0.5;entryY=0;entryDx=0;entryDy=0;" edge="1" parent="1" source="0SLeSFdNCgg_F5EIytYb-4" target="0SLeSFdNCgg_F5EIytYb-8">
          <mxGeometry relative="1" as="geometry" />
        </mxCell>
        <mxCell id="0SLeSFdNCgg_F5EIytYb-16" style="edgeStyle=orthogonalEdgeStyle;rounded=0;orthogonalLoop=1;jettySize=auto;html=1;entryX=0.5;entryY=0;entryDx=0;entryDy=0;" edge="1" parent="1" source="0SLeSFdNCgg_F5EIytYb-4" target="0SLeSFdNCgg_F5EIytYb-9">
          <mxGeometry relative="1" as="geometry" />
        </mxCell>
        <mxCell id="0SLeSFdNCgg_F5EIytYb-4" value="filtered unlabeled" style="shape=cylinder;whiteSpace=wrap;html=1;boundedLbl=1;backgroundOutline=1;rounded=0;fillColor=#fff2cc;strokeColor=#d6b656;" vertex="1" parent="1">
          <mxGeometry x="370" y="500" width="60" height="80" as="geometry" />
        </mxCell>
        <mxCell id="0SLeSFdNCgg_F5EIytYb-20" style="edgeStyle=orthogonalEdgeStyle;rounded=0;orthogonalLoop=1;jettySize=auto;html=1;entryX=0;entryY=0.5;entryDx=0;entryDy=0;" edge="1" parent="1" source="0SLeSFdNCgg_F5EIytYb-6" target="0SLeSFdNCgg_F5EIytYb-19">
          <mxGeometry relative="1" as="geometry">
            <Array as="points">
              <mxPoint x="190" y="770" />
            </Array>
          </mxGeometry>
        </mxCell>
        <mxCell id="0SLeSFdNCgg_F5EIytYb-6" value="Russian&lt;br&gt;model" style="whiteSpace=wrap;html=1;rounded=0;fillColor=#e1d5e7;strokeColor=#9673a6;" vertex="1" parent="1">
          <mxGeometry x="130" y="630" width="120" height="60" as="geometry" />
        </mxCell>
        <mxCell id="0SLeSFdNCgg_F5EIytYb-22" style="edgeStyle=orthogonalEdgeStyle;rounded=0;orthogonalLoop=1;jettySize=auto;html=1;" edge="1" parent="1" source="0SLeSFdNCgg_F5EIytYb-8" target="0SLeSFdNCgg_F5EIytYb-19">
          <mxGeometry relative="1" as="geometry" />
        </mxCell>
        <mxCell id="0SLeSFdNCgg_F5EIytYb-8" value="Korean&lt;br&gt;model" style="whiteSpace=wrap;html=1;rounded=0;fillColor=#e1d5e7;strokeColor=#9673a6;" vertex="1" parent="1">
          <mxGeometry x="270" y="630" width="120" height="60" as="geometry" />
        </mxCell>
        <mxCell id="0SLeSFdNCgg_F5EIytYb-23" style="edgeStyle=orthogonalEdgeStyle;rounded=0;orthogonalLoop=1;jettySize=auto;html=1;" edge="1" parent="1" source="0SLeSFdNCgg_F5EIytYb-9" target="0SLeSFdNCgg_F5EIytYb-19">
          <mxGeometry relative="1" as="geometry" />
        </mxCell>
        <mxCell id="0SLeSFdNCgg_F5EIytYb-9" value="......" style="whiteSpace=wrap;html=1;rounded=0;fillColor=#e1d5e7;strokeColor=#9673a6;" vertex="1" parent="1">
          <mxGeometry x="410" y="630" width="120" height="60" as="geometry" />
        </mxCell>
        <mxCell id="0SLeSFdNCgg_F5EIytYb-21" style="edgeStyle=orthogonalEdgeStyle;rounded=0;orthogonalLoop=1;jettySize=auto;html=1;entryX=1;entryY=0.5;entryDx=0;entryDy=0;" edge="1" parent="1" source="0SLeSFdNCgg_F5EIytYb-10" target="0SLeSFdNCgg_F5EIytYb-19">
          <mxGeometry relative="1" as="geometry">
            <Array as="points">
              <mxPoint x="610" y="770" />
            </Array>
          </mxGeometry>
        </mxCell>
        <mxCell id="0SLeSFdNCgg_F5EIytYb-10" value="arabic&lt;br&gt;model" style="whiteSpace=wrap;html=1;rounded=0;fillColor=#e1d5e7;strokeColor=#9673a6;" vertex="1" parent="1">
          <mxGeometry x="550" y="630" width="120" height="60" as="geometry" />
        </mxCell>
        <mxCell id="0SLeSFdNCgg_F5EIytYb-17" value="unlabeled&lt;br&gt;" style="shape=cylinder;whiteSpace=wrap;html=1;boundedLbl=1;backgroundOutline=1;rounded=0;fillColor=#ffe6cc;strokeColor=#d79b00;" vertex="1" parent="1">
          <mxGeometry x="370" y="390" width="60" height="80" as="geometry" />
        </mxCell>
        <mxCell id="0SLeSFdNCgg_F5EIytYb-18" value="" style="edgeStyle=orthogonalEdgeStyle;rounded=0;orthogonalLoop=1;jettySize=auto;html=1;exitX=0.5;exitY=1;exitDx=0;exitDy=0;" edge="1" parent="1" source="0SLeSFdNCgg_F5EIytYb-1" target="0SLeSFdNCgg_F5EIytYb-17">
          <mxGeometry relative="1" as="geometry">
            <mxPoint x="400" y="336" as="sourcePoint" />
            <mxPoint x="400" y="466" as="targetPoint" />
          </mxGeometry>
        </mxCell>
        <mxCell id="0SLeSFdNCgg_F5EIytYb-24" style="edgeStyle=orthogonalEdgeStyle;rounded=0;orthogonalLoop=1;jettySize=auto;html=1;entryX=0;entryY=0.5;entryDx=0;entryDy=0;entryPerimeter=0;" edge="1" parent="1" source="0SLeSFdNCgg_F5EIytYb-19" target="0SLeSFdNCgg_F5EIytYb-2">
          <mxGeometry relative="1" as="geometry">
            <Array as="points">
              <mxPoint x="400" y="840" />
              <mxPoint x="70" y="840" />
              <mxPoint x="70" y="290" />
            </Array>
          </mxGeometry>
        </mxCell>
        <mxCell id="0SLeSFdNCgg_F5EIytYb-19" value="filtered unlabeled" style="shape=cylinder;whiteSpace=wrap;html=1;boundedLbl=1;backgroundOutline=1;rounded=0;fillColor=#fff2cc;strokeColor=#d6b656;" vertex="1" parent="1">
          <mxGeometry x="370" y="730" width="60" height="80" as="geometry" />
        </mxCell>
        <mxCell id="0SLeSFdNCgg_F5EIytYb-25" value="&lt;span&gt;&amp;gt;0.9&lt;/span&gt;" style="text;html=1;align=center;verticalAlign=middle;resizable=0;points=[];autosize=1;" vertex="1" parent="1">
          <mxGeometry x="400" y="470" width="40" height="20" as="geometry" />
        </mxCell>
        <mxCell id="0SLeSFdNCgg_F5EIytYb-26" value="agree" style="text;html=1;align=center;verticalAlign=middle;resizable=0;points=[];autosize=1;" vertex="1" parent="1">
          <mxGeometry x="395" y="810" width="50" height="20" as="geometry" />
        </mxCell>
        <mxCell id="0SLeSFdNCgg_F5EIytYb-27" value="distillation(or not)" style="text;html=1;align=center;verticalAlign=middle;resizable=0;points=[];autosize=1;fillColor=#f5f5f5;strokeColor=#666666;fontColor=#333333;" vertex="1" parent="1">
          <mxGeometry x="410" y="340" width="110" height="20" as="geometry" />
        </mxCell>
      </root>
    </mxGraphModel>
  </diagram>
</mxfile>
